<?xml version="1.0" encoding="utf-8"?>
<!-- Generator: Adobe Illustrator 24.2.1, SVG Export Plug-In . SVG Version: 6.00 Build 0)  -->
<svg version="1.1" id="Layer_1" xmlns:sketch="http://www.bohemiancoding.com/sketch/ns"
	 xmlns="http://www.w3.org/2000/svg" xmlns:xlink="http://www.w3.org/1999/xlink" x="0px" y="0px" viewBox="0 0 26 30"
	 style="enable-background:new 0 0 26 30;" xml:space="preserve">
<style type="text/css">
	.st0{fill-rule:evenodd;clip-rule:evenodd;fill:#FFFFFF;}
</style>
<desc>Created with Sketch Beta.</desc>
<g id="Page-1" sketch:type="MSPage">
	<g id="Icon-Set-Filled" transform="translate(-521.000000, -362.000000)" sketch:type="MSLayerGroup">
		<path id="timer" sketch:type="MSShapeGroup" class="st0" d="M534,382c-1.7,0-3-1.3-3-3c0-1.3,0.8-2.4,2-2.8V371c0-0.6,0.4-1,1-1
			s1,0.4,1,1v5.2c1.2,0.4,2,1.5,2,2.8C537,380.7,535.7,382,534,382L534,382z M535,366l0-2h4c0.6,0,1-0.4,1-1s-0.4-1-1-1h-10
			c-0.6,0-1,0.4-1,1s0.4,1,1,1h4v2l0,0c-6.7,0.5-12,6.1-12,13c0,7.2,5.8,13,13,13s13-5.8,13-13C547,372.2,541.7,366.6,535,366
			L535,366z"/>
	</g>
</g>
</svg>
